<svg width="138" height="97" viewBox="0 0 138 97" fill="none" xmlns="http://www.w3.org/2000/svg">
<path d="M17 80.9142V63.0854H19.9834V78.0108H24.1213L22.9158 80.9142H17Z" fill="#185D78"/>
<path d="M32.9032 80.704L32.5064 78.9848H32.3382C32.041 79.5945 31.6185 80.072 31.0707 80.4223C30.5211 80.7693 29.8941 80.9444 29.1883 80.9444C27.986 80.9444 27.0756 80.5357 26.4592 79.7181C25.8426 78.9007 25.5334 77.6776 25.5334 76.0512V67.3109H28.7675V75.2819C28.7675 76.2594 28.8843 76.9978 29.1161 77.4941C29.348 77.9904 29.7257 78.2395 30.2463 78.2395C30.9349 78.2395 31.4383 77.8944 31.7542 77.2056C32.0721 76.517 32.23 75.3576 32.23 73.7311V67.3109H35.4641V80.704H32.9032Z" fill="#185D78"/>
<path d="M40.4535 73.8632L37.1112 67.3109H40.4293L42.2087 71.3986L43.8557 67.3109H47.15L43.7837 73.8632L47.2943 80.7039H43.9519L42.0525 76.4239L40.2851 80.7039H36.9548L40.4535 73.8632Z" fill="#185D78"/>
<path d="M49.8638 64.4787H54.2452C55.8872 64.4787 57.1924 64.7948 58.161 65.4268C59.1298 66.0588 59.6141 67.0551 59.6141 68.417C59.6141 69.2705 59.3719 70.0142 58.8876 70.6464C58.4033 71.2784 57.6854 71.7164 56.732 71.9637V72.0614C57.9308 72.2418 58.8756 72.6575 59.5643 73.305C60.253 73.9542 60.5981 74.8438 60.5981 75.9758C60.5981 76.7642 60.4539 77.4546 60.1671 78.0453C59.8804 78.6362 59.4733 79.1274 58.9494 79.5225C58.4238 79.9157 57.7919 80.2111 57.0533 80.4087C56.3147 80.6064 55.4852 80.7041 54.5664 80.7041H49.8638V64.4787V64.4787ZM53.8019 71.6184C55.4765 71.6184 56.6753 71.3522 57.3967 70.818C58.1197 70.2857 58.4804 69.4767 58.4804 68.3931C58.4804 67.342 58.0957 66.5827 57.3229 66.1156C56.5519 65.6485 55.4199 65.4131 53.9257 65.4131H50.9955V71.6184H53.8019V71.6184ZM54.2709 79.7679C55.8957 79.7679 57.1719 79.464 58.0994 78.8577C59.0268 78.2498 59.4905 77.2895 59.4905 75.9758C59.4905 74.8112 59.0388 73.9457 58.1355 73.3788C57.2337 72.812 55.9457 72.5287 54.2709 72.5287H50.9957V79.7679H54.2709Z" fill="#185D78"/>
<path d="M63.3066 77.7501C63.3066 76.4534 63.9215 75.4589 65.1529 74.7702C66.3843 74.0815 68.3132 73.5886 70.9392 73.2931C70.9546 72.8499 70.9272 72.4035 70.8533 71.9518C70.7793 71.5001 70.6403 71.0981 70.4342 70.7444C70.2282 70.3923 69.9413 70.1036 69.572 69.8822C69.2028 69.6607 68.7305 69.5506 68.1568 69.5506C67.3529 69.5506 66.6213 69.7068 65.9653 70.0177C65.3091 70.3304 64.7835 70.6345 64.3903 70.9297L63.8974 70.1174C64.1103 69.9696 64.3697 69.8047 64.6719 69.6244C64.9758 69.444 65.3124 69.2791 65.6818 69.1314C66.0512 68.9837 66.4581 68.8566 66.9013 68.75C67.3442 68.6434 67.803 68.5903 68.2804 68.5903C68.9862 68.5903 69.5771 68.7087 70.0529 68.9476C70.5287 69.1847 70.9151 69.5091 71.2105 69.9198C71.5058 70.3302 71.7155 70.8094 71.8373 71.359C71.9611 71.9103 72.0229 72.5047 72.0229 73.1452V80.704H71.1109L70.9888 79.1771H70.9392C70.3311 79.6529 69.6786 80.0754 68.9812 80.4448C68.2839 80.8158 67.542 80.9994 66.7537 80.9994C66.2779 80.9994 65.8347 80.9342 65.4244 80.8019C65.0139 80.6714 64.6481 80.4738 64.3285 80.211C64.0072 79.95 63.7583 79.6134 63.578 79.2028C63.396 78.7926 63.3066 78.3082 63.3066 77.7501ZM64.4386 77.7003C64.4386 78.554 64.686 79.1619 65.177 79.5226C65.67 79.8833 66.2522 80.0636 66.9254 80.0636C67.6157 80.0636 68.2719 79.9005 68.8954 79.5726C69.5188 79.2428 70.2008 78.767 70.9392 78.1434V74.1296C69.7248 74.2773 68.7029 74.4593 67.8735 74.6722C67.0439 74.8852 66.3758 75.1395 65.8674 75.435C65.3572 75.7303 64.9932 76.067 64.7715 76.4449C64.55 76.8226 64.4386 77.2417 64.4386 77.7003Z" fill="#185D78"/>
<path d="M76.2585 63H77.3422V79.2769C77.3422 79.5398 77.3903 79.7321 77.49 79.854C77.5879 79.9775 77.7116 80.0395 77.8593 80.0395C77.9074 80.0395 77.9607 80.0395 78.019 80.0395C78.0758 80.0395 78.1702 80.0241 78.3025 79.9897L78.4983 80.876C78.385 80.9087 78.2699 80.9378 78.1548 80.9635C78.0397 80.9875 77.892 80.9996 77.7118 80.9996C76.743 80.9996 76.2587 80.3763 76.2587 79.1277V63H76.2585Z" fill="#185D78"/>
<path d="M81.4299 77.7501C81.4299 76.4534 82.0448 75.4589 83.2762 74.7702C84.5076 74.0815 86.4365 73.5886 89.0625 73.2931C89.0779 72.8499 89.0505 72.4035 88.9766 71.9518C88.9028 71.5001 88.7636 71.0981 88.5575 70.7444C88.3515 70.3923 88.0645 70.1036 87.6953 69.8822C87.3261 69.6607 86.8538 69.5506 86.2803 69.5506C85.4766 69.5506 84.7447 69.7068 84.0886 70.0177C83.4326 70.3304 82.907 70.6345 82.5136 70.9297L82.0206 70.1174C82.2336 69.9696 82.493 69.8047 82.7952 69.6244C83.0991 69.444 83.4359 69.2791 83.8051 69.1314C84.1745 68.9837 84.5814 68.8566 85.0245 68.75C85.4677 68.6434 85.9263 68.5903 86.4037 68.5903C87.1095 68.5903 87.7004 68.7087 88.1762 68.9476C88.652 69.1847 89.0384 69.5091 89.3338 69.9198C89.6293 70.3302 89.8388 70.8094 89.9608 71.359C90.0844 71.9103 90.1464 72.5047 90.1464 73.1452V80.704H89.2343L89.1123 79.1771H89.0625C88.4546 79.6529 87.8019 80.0754 87.1046 80.4448C86.4072 80.8158 85.6652 80.9994 84.877 80.9994C84.4012 80.9994 83.958 80.9342 83.5477 80.8019C83.1373 80.6714 82.7714 80.4738 82.4518 80.211C82.1307 79.95 81.8816 79.6134 81.7012 79.2028C81.5192 78.7926 81.4299 78.3082 81.4299 77.7501ZM82.5617 77.7003C82.5617 78.554 82.8091 79.1619 83.3001 79.5226C83.7931 79.8833 84.3753 80.0636 85.0485 80.0636C85.739 80.0636 86.395 79.9005 87.0185 79.5726C87.642 79.2428 88.3239 78.767 89.0623 78.1434V74.1296C87.8481 74.2773 86.826 74.4593 85.9966 74.6722C85.1671 74.8852 84.4989 75.1395 83.9905 75.435C83.4805 75.7303 83.1163 76.067 82.8948 76.4449C82.6733 76.8226 82.5617 77.2417 82.5617 77.7003Z" fill="#185D78"/>
<path d="M94.3818 68.8858H95.3179L95.4158 70.708H95.4896C96.0977 70.1001 96.721 69.5951 97.3617 69.1931C98.0007 68.7912 98.7306 68.5904 99.5515 68.5904C100.783 68.5904 101.686 68.9596 102.26 69.698C102.835 70.4367 103.122 71.5769 103.122 73.1212V80.7039H102.038V73.2689C102.038 72.0048 101.83 71.0722 101.411 70.4728C100.992 69.8751 100.298 69.5745 99.3298 69.5745C98.6239 69.5745 97.9851 69.76 97.4096 70.1292C96.8359 70.4984 96.1869 71.0515 95.4653 71.7901V80.7039H94.3816V68.8858H94.3818Z" fill="#185D78"/>
<path d="M106.495 74.8199C106.495 73.8341 106.643 72.9529 106.94 72.1732C107.236 71.3935 107.629 70.7408 108.122 70.2152C108.613 69.6897 109.183 69.2877 109.833 69.0077C110.48 68.7294 111.165 68.5904 111.888 68.5904C112.709 68.5904 113.395 68.7381 113.944 69.0334C114.494 69.3288 114.966 69.6654 115.359 70.0433L114.72 70.8059C114.343 70.4453 113.924 70.1447 113.465 69.9077C113.004 69.6691 112.488 69.5505 111.912 69.5505C111.306 69.5505 110.742 69.6777 110.226 69.9319C109.709 70.186 109.257 70.5467 108.872 71.0156C108.486 71.4829 108.182 72.0375 107.96 72.6764C107.738 73.3171 107.629 74.0316 107.629 74.82C107.629 75.5911 107.731 76.2971 107.936 76.9378C108.142 77.5766 108.429 78.1281 108.798 78.5867C109.167 79.047 109.619 79.4041 110.151 79.6584C110.686 79.9125 111.273 80.0398 111.912 80.0398C112.535 80.0398 113.114 79.9092 113.648 79.6464C114.182 79.3836 114.653 79.0625 115.063 78.6846L115.63 79.4249C115.122 79.8835 114.555 80.2614 113.932 80.5569C113.308 80.8523 112.618 80.9999 111.864 80.9999C111.091 80.9999 110.381 80.8608 109.734 80.5808C109.085 80.3026 108.518 79.9007 108.034 79.3751C107.549 78.8495 107.173 78.2055 106.902 77.4412C106.631 76.6783 106.495 75.8039 106.495 74.8199Z" fill="#185D78"/>
<path d="M117.132 74.82C117.132 73.8514 117.276 72.9805 117.563 72.2094C117.85 71.4384 118.236 70.7855 118.72 70.2516C119.205 69.719 119.754 69.3086 120.371 69.0217C120.986 68.733 121.621 68.5907 122.279 68.5907C123.691 68.5907 124.799 69.0665 125.603 70.0179C126.406 70.9711 126.81 72.316 126.81 74.0559C126.81 74.2036 126.81 74.3513 126.81 74.499C126.81 74.6468 126.793 74.7945 126.76 74.9422H118.241C118.257 75.6806 118.372 76.3677 118.585 76.998C118.798 77.63 119.098 78.1728 119.485 78.6245C119.869 79.0761 120.333 79.4282 120.876 79.6825C121.417 79.9366 122.023 80.0638 122.697 80.0638C123.337 80.0638 123.916 79.9694 124.433 79.7804C124.95 79.5931 125.431 79.3339 125.874 79.0058L126.317 79.8423C125.84 80.1222 125.319 80.385 124.752 80.6308C124.187 80.8764 123.469 81 122.599 81C121.843 81 121.133 80.8609 120.469 80.581C119.804 80.3027 119.225 79.8956 118.732 79.3632C118.241 78.8293 117.85 78.1817 117.563 77.4174C117.276 76.6543 117.132 75.7886 117.132 74.82ZM125.774 74.1055C125.774 72.5787 125.464 71.433 124.84 70.6704C124.215 69.9079 123.37 69.5248 122.303 69.5248C121.795 69.5248 121.311 69.6331 120.85 69.8461C120.392 70.0591 119.976 70.363 119.607 70.7564C119.238 71.1514 118.934 71.6305 118.697 72.1973C118.458 72.764 118.307 73.3995 118.242 74.1055H125.774Z" fill="#185D78"/>
<path d="M66.4277 46.5078C67.3184 46.5078 67.9883 46.7891 68.4375 47.3516C68.8906 47.9102 69.1172 48.7285 69.1172 49.8066C69.1172 50.8652 68.8789 51.6816 68.4023 52.2559C67.9297 52.8301 67.2637 53.1172 66.4043 53.1172C65.9512 53.1172 65.543 53.0234 65.1797 52.8359C64.8164 52.6484 64.5293 52.3828 64.3184 52.0391H64.2656L64.1016 53H63.7383V43.8828H64.3184V46.1738C64.3184 46.5176 64.3105 46.834 64.2949 47.123L64.2773 47.6211H64.3184C64.5605 47.2383 64.8516 46.957 65.1914 46.7773C65.5352 46.5977 65.9473 46.5078 66.4277 46.5078ZM66.416 47.0352C65.666 47.0352 65.1289 47.25 64.8047 47.6797C64.4805 48.1094 64.3184 48.8184 64.3184 49.8066V49.9062C64.3184 50.8672 64.4863 51.5566 64.8223 51.9746C65.1621 52.3926 65.6895 52.6016 66.4043 52.6016C67.0996 52.6016 67.623 52.3594 67.9746 51.875C68.3262 51.3867 68.502 50.6934 68.502 49.7949C68.502 47.9551 67.8066 47.0352 66.416 47.0352ZM69.8203 46.6309H70.418L71.7656 50.2051C72.1758 51.3027 72.4355 52.043 72.5449 52.4258H72.5801C72.7441 51.9219 73.0117 51.1699 73.3828 50.1699L74.7305 46.6309H75.3281L72.4746 54.0312C72.2441 54.6328 72.0508 55.0391 71.8945 55.25C71.7383 55.4609 71.5547 55.6191 71.3438 55.7246C71.1367 55.8301 70.8848 55.8828 70.5879 55.8828C70.3652 55.8828 70.1172 55.8418 69.8438 55.7598V55.2559C70.0703 55.3184 70.3145 55.3496 70.5762 55.3496C70.7754 55.3496 70.9512 55.3027 71.1035 55.209C71.2559 55.1152 71.3926 54.9688 71.5137 54.7695C71.6387 54.5742 71.7812 54.2617 71.9414 53.832C72.1055 53.4062 72.2109 53.1289 72.2578 53L69.8203 46.6309Z" fill="black"/>
<path d="M18.867 27.339H17.9732H17.0795H16.1858H15.292V25.2335V23.1279V21.0224V18.9169H14.1128H12.9335H11.7542H10.575V21.0224V23.1279V25.2335V27.339H9.68121H8.78748H7.89374H7V22.536V17.7342V12.9312V8.12823H7.89374H8.78748H9.68121H10.575V10.0364V11.9446V13.8528V15.761H11.7542H12.9335H14.1128H15.292V13.854V11.9458V10.0376V8.12823H16.1858H17.0795H17.9732H18.867V12.9312V17.7342V22.5371V27.339Z" fill="black"/>
<path d="M32.887 19.9941C32.887 20.5942 32.8557 21.1606 32.7919 21.6945C32.728 22.2284 32.6328 22.7287 32.5063 23.1953C32.3798 23.6619 32.2208 24.096 32.0304 24.4964C31.8401 24.8969 31.6172 25.2637 31.3642 25.5968C31.11 25.9311 30.8326 26.2236 30.532 26.4743C30.2314 26.725 29.9064 26.9339 29.5582 27.101C29.2099 27.2682 28.8385 27.3935 28.4427 27.4771C28.0469 27.5607 27.6279 27.6025 27.1857 27.6025C26.906 27.6025 26.6332 27.5839 26.3697 27.5456C26.1062 27.5073 25.8497 27.4504 25.6025 27.3738C25.3553 27.2972 25.1162 27.2009 24.884 27.086C24.653 26.971 24.4302 26.8364 24.2155 26.6832C24.0007 26.53 23.7988 26.3594 23.6084 26.1725C23.4181 25.9856 23.2405 25.7813 23.0757 25.5608C22.9097 25.3403 22.7576 25.1035 22.616 24.8493C22.4756 24.5951 22.3467 24.3247 22.2307 24.0368C22.1146 23.7489 22.0136 23.4483 21.9266 23.1361C21.8395 22.8239 21.7675 22.4989 21.7083 22.1623C21.6503 21.8257 21.6062 21.4763 21.5772 21.1153C21.5482 20.7543 21.5331 20.3806 21.5331 19.9952C21.5331 19.4021 21.5644 18.8404 21.6271 18.3122C21.6898 17.7841 21.785 17.2873 21.9103 16.8231C22.0357 16.3588 22.1935 15.9282 22.3827 15.5289C22.5719 15.1296 22.7924 14.764 23.0443 14.4297C23.2962 14.0966 23.5724 13.8041 23.8731 13.5534C24.1737 13.3027 24.4987 13.0949 24.848 12.9278C25.1974 12.7606 25.5712 12.6353 25.9693 12.5517C26.3674 12.4681 26.7899 12.4263 27.2368 12.4263C27.6685 12.4263 28.0771 12.4693 28.4648 12.554C28.8524 12.6387 29.2169 12.7664 29.5605 12.937C29.904 13.1077 30.2244 13.3201 30.5239 13.5754C30.8233 13.8308 31.0996 14.1291 31.3549 14.4692C31.6103 14.8092 31.8331 15.1795 32.0246 15.5799C32.2162 15.9804 32.3752 16.411 32.5028 16.8706C32.6305 17.3314 32.7257 17.8213 32.7895 18.3413C32.8545 18.8624 32.887 19.4137 32.887 19.9941ZM25.108 19.9941C25.108 20.3748 25.1185 20.7335 25.1394 21.0677C25.1603 21.402 25.1916 21.7131 25.2334 22.0021C25.2752 22.2899 25.3274 22.5546 25.3889 22.796C25.4516 23.0374 25.5236 23.2557 25.6071 23.4506C25.6907 23.6456 25.7859 23.8163 25.8938 23.9625C26.0018 24.1088 26.1236 24.2306 26.2571 24.3281C26.3906 24.4256 26.5369 24.4988 26.6959 24.5475C26.8549 24.5963 27.0255 24.6206 27.2101 24.6206C27.5606 24.6206 27.867 24.5243 28.1305 24.3316C28.3928 24.1389 28.6122 23.8499 28.7874 23.4646C28.9627 23.0792 29.0939 22.5975 29.1809 22.0195C29.268 21.4415 29.3121 20.7671 29.3121 19.9952C29.3121 19.6122 29.3016 19.2524 29.2807 18.9181C29.2599 18.5838 29.2285 18.2728 29.1856 17.9861C29.1426 17.6994 29.0904 17.4371 29.0277 17.1991C28.965 16.9612 28.8908 16.7476 28.806 16.5584C28.7224 16.3692 28.6261 16.2032 28.517 16.0616C28.4079 15.92 28.2872 15.8016 28.1549 15.7065C28.0225 15.6113 27.8763 15.5405 27.7196 15.4929C27.5629 15.4453 27.3923 15.4221 27.2112 15.4221C27.0278 15.4221 26.856 15.4453 26.697 15.4929C26.538 15.5405 26.3918 15.6113 26.2583 15.7065C26.1248 15.8016 26.0041 15.92 25.895 16.0616C25.787 16.2032 25.6907 16.3692 25.6083 16.5584C25.5247 16.7476 25.4528 16.9612 25.3901 17.1991C25.3274 17.4371 25.2752 17.6994 25.2346 17.9861C25.1939 18.2728 25.1614 18.5827 25.1405 18.9181C25.1196 19.2536 25.108 19.6099 25.108 19.9941Z" fill="black"/>
<path d="M41.5854 12.4252C41.6933 12.4252 41.8001 12.4298 41.9057 12.4379C42.0125 12.4461 42.1181 12.4588 42.2226 12.4751C42.3282 12.4913 42.4327 12.5122 42.536 12.5366C42.6405 12.561 42.7438 12.59 42.8459 12.6225L42.7438 13.4698L42.6416 14.3171L42.5395 15.1644L42.4373 16.0117C42.3758 15.9897 42.3097 15.9699 42.2388 15.9537C42.168 15.9374 42.0926 15.9235 42.0125 15.9131C41.9324 15.9026 41.8477 15.8945 41.7595 15.8887C41.6701 15.8829 41.5761 15.8806 41.4774 15.8806C41.265 15.8806 41.0642 15.9015 40.8773 15.9432C40.6893 15.985 40.5141 16.0477 40.3516 16.1313C40.1891 16.2149 40.0382 16.3193 39.8989 16.4458C39.7608 16.5712 39.6342 16.7186 39.5205 16.8869C39.4067 17.054 39.3069 17.2397 39.221 17.4452C39.1351 17.6506 39.0643 17.8758 39.0075 18.1184C38.9506 18.3621 38.9076 18.6245 38.8798 18.9065C38.8519 19.1886 38.8368 19.4892 38.8368 19.8084V21.691V23.5737V25.4563V27.339H37.9652H37.0912H36.2171H35.3431V23.6793V20.0196V16.3599V12.7014H36.0628H36.7824H37.502H38.2217L38.3203 13.2725L38.419 13.8435L38.5177 14.4146L38.6163 14.9857H38.6453H38.6743H38.7034H38.7324C38.8287 14.7559 38.9274 14.5423 39.0272 14.345C39.1282 14.1476 39.2303 13.9677 39.3359 13.8029C39.4416 13.6381 39.5483 13.4907 39.6575 13.3595C39.7666 13.2284 39.8792 13.1135 39.9929 13.0148C40.1066 12.9161 40.225 12.8303 40.3492 12.756C40.4723 12.6817 40.5999 12.6202 40.7323 12.5714C40.8646 12.5227 41.0015 12.4855 41.1431 12.46C41.2882 12.4379 41.4345 12.4252 41.5854 12.4252Z" fill="black"/>
<path d="M49.4956 24.6449C49.6186 24.6449 49.7428 24.6368 49.8705 24.6217C49.9981 24.6066 50.1281 24.5834 50.2605 24.5532C50.3928 24.5231 50.5286 24.4848 50.6655 24.4383C50.8025 24.3919 50.943 24.3385 51.0846 24.277V24.9606V25.6443V26.328V27.0116C50.9418 27.1103 50.7828 27.1962 50.604 27.2704C50.4253 27.3447 50.2303 27.4062 50.0167 27.455C49.8031 27.5037 49.5722 27.5409 49.3226 27.5664C49.0731 27.5908 48.8061 27.6036 48.5217 27.6036C48.2037 27.6036 47.9066 27.5803 47.6303 27.5328C47.3541 27.4852 47.0976 27.4144 46.8631 27.3192C46.6275 27.224 46.4127 27.1056 46.2189 26.964C46.0251 26.8212 45.851 26.6564 45.6978 26.4661C45.5445 26.2769 45.4099 26.0645 45.295 25.8277C45.1801 25.5909 45.0837 25.3309 45.0071 25.0465C44.9305 24.7622 44.8737 24.4546 44.8354 24.1226C44.7971 23.7907 44.7785 23.4355 44.7785 23.0571V21.1617V19.2663V17.3708V15.4743H44.4233H44.0681H43.713H43.3578V15.0831V14.6919V14.3008V13.9096L43.8139 13.5939L44.2701 13.2782L44.7263 12.9625L45.1824 12.6468L45.4053 11.8715L45.6281 11.0961L45.851 10.3208L46.0738 9.54541H46.6321H47.1904H47.7487H48.307V10.3335V11.1216V11.9098V12.6979H48.9709H49.6348H50.2988H50.9627V13.3908V14.0837V14.7767V15.4696H50.3034H49.6395H48.9756H48.3117V17.3941V19.3185V21.2429V23.1674C48.3117 23.4123 48.336 23.627 48.3859 23.8116C48.4347 23.9961 48.509 24.1493 48.6076 24.2712C48.7063 24.3942 48.8293 24.4859 48.9767 24.5474C49.1241 24.609 49.2982 24.6449 49.4956 24.6449Z" fill="black"/>
<path d="M53.0171 8.87801C53.0171 8.73292 53.0275 8.59596 53.0484 8.46712C53.0693 8.33712 53.1007 8.21525 53.1436 8.1015C53.1854 7.98659 53.2388 7.87981 53.3015 7.78115C53.3653 7.68249 53.4384 7.5908 53.5232 7.50606C53.6067 7.42133 53.6996 7.34821 53.8006 7.28437C53.9015 7.22053 54.0106 7.1683 54.1279 7.12652C54.2451 7.08473 54.3716 7.05223 54.5063 7.03134C54.6409 7.01045 54.7837 7 54.9346 7C55.0773 7 55.212 7.01045 55.3396 7.03134C55.4673 7.05223 55.5892 7.08357 55.7029 7.12652C55.8167 7.1683 55.9235 7.22169 56.0233 7.28437C56.1231 7.34821 56.216 7.42133 56.3007 7.50606C56.3866 7.58964 56.4609 7.68133 56.5247 7.78115C56.5886 7.87981 56.642 7.98775 56.6849 8.1015C56.7278 8.21641 56.7592 8.33829 56.7812 8.46712C56.8021 8.59712 56.8137 8.73408 56.8137 8.87801C56.8137 9.02658 56.8033 9.16702 56.7812 9.29934C56.7592 9.43166 56.7267 9.55586 56.6826 9.67077C56.6385 9.78684 56.5839 9.89362 56.5189 9.99228C56.4528 10.0909 56.3761 10.1826 56.2891 10.265C56.2009 10.3463 56.1069 10.4183 56.007 10.4798C55.9072 10.5413 55.8004 10.5924 55.6879 10.633C55.5753 10.6736 55.4557 10.705 55.3304 10.7258C55.205 10.7467 55.0738 10.7572 54.9357 10.7572C54.7906 10.7572 54.6537 10.7467 54.5237 10.7258C54.3937 10.705 54.2706 10.6748 54.1546 10.633C54.0385 10.5924 53.9294 10.5401 53.8273 10.4798C53.7251 10.4183 53.6311 10.3463 53.5429 10.265C53.4547 10.1826 53.3781 10.0921 53.3131 9.99228C53.2469 9.89362 53.1924 9.78568 53.1494 9.67077C53.1053 9.5547 53.0728 9.43166 53.0507 9.29934C53.0275 9.16702 53.0171 9.02658 53.0171 8.87801ZM56.6559 27.3389H55.7819H54.9079H54.0339H53.1599V23.6792V20.0196V16.3599V12.7014H54.0339H54.9079H55.7819H56.6559V16.361V20.0207V23.6804V27.3389Z" fill="black"/>
<path d="M60.7787 9.60565H61.9893H63.1999H64.4105H65.6211C65.8684 9.60565 66.1086 9.61146 66.3419 9.6219C66.5752 9.63235 66.8027 9.6486 67.0232 9.66949C67.2438 9.69038 67.4585 9.71708 67.6663 9.74958C67.874 9.78208 68.076 9.81922 68.271 9.86101C68.466 9.90395 68.654 9.95386 68.8351 10.0096C69.0162 10.0664 69.1891 10.1291 69.3551 10.1999C69.5211 10.2707 69.6801 10.3485 69.831 10.4321C69.9819 10.5168 70.127 10.6085 70.2639 10.7072C70.4009 10.8058 70.5286 10.9126 70.6493 11.0252C70.77 11.1378 70.8826 11.2596 70.987 11.3873C71.0915 11.515 71.1878 11.6508 71.276 11.7924C71.3643 11.934 71.4443 12.0849 71.5163 12.2416C71.5871 12.3983 71.6498 12.5643 71.7043 12.7384C71.7577 12.9136 71.803 13.097 71.839 13.2897C71.875 13.4824 71.9017 13.6843 71.9202 13.8944C71.9388 14.1057 71.9469 14.3251 71.9469 14.5537C71.9469 14.989 71.9121 15.3964 71.8425 15.7759C71.7728 16.1555 71.6684 16.5072 71.5302 16.831C71.391 17.1548 71.2169 17.4508 71.0091 17.7201C70.8013 17.9894 70.5576 18.2296 70.279 18.4421C70.0004 18.6556 69.6952 18.8413 69.3621 19.0015C69.0289 19.1617 68.6691 19.294 68.2803 19.4008C67.8926 19.5076 67.4771 19.5877 67.0349 19.6399C66.5926 19.6921 66.1214 19.72 65.6234 19.72H64.7193H63.8174H62.9155H62.0148V21.6235V23.5271V25.4306V27.3342H61.7061H61.3973H61.0886H60.7799V22.9015V18.4687V14.0395V9.60565H60.7787ZM65.324 18.6742C65.7778 18.6742 66.2015 18.6545 66.5961 18.6138C66.9907 18.5732 67.3564 18.5129 67.693 18.4328C68.0296 18.3527 68.336 18.2517 68.6146 18.1298C68.8931 18.0091 69.1415 17.8675 69.3621 17.7062C69.5814 17.5448 69.7741 17.358 69.9389 17.1467C70.1037 16.9343 70.2407 16.6975 70.351 16.4352C70.4612 16.1729 70.5436 15.885 70.5982 15.5716C70.6528 15.2583 70.6806 14.9205 70.6806 14.556C70.6806 14.368 70.6736 14.1881 70.6597 14.0163C70.6458 13.8445 70.6249 13.6809 70.597 13.5242C70.5692 13.3686 70.5344 13.2212 70.4926 13.0808C70.4508 12.9403 70.402 12.8092 70.3463 12.6861C70.2895 12.5631 70.2268 12.4447 70.1571 12.3333C70.0875 12.2219 70.012 12.1162 69.9285 12.0164C69.8461 11.9166 69.7567 11.8226 69.6604 11.7344C69.564 11.6462 69.4607 11.5638 69.3516 11.4871C69.2413 11.4117 69.1241 11.3409 68.9988 11.2759C68.8746 11.2109 68.7422 11.1517 68.603 11.0971C68.4637 11.0438 68.3174 10.995 68.1642 10.9521C68.011 10.9091 67.8497 10.872 67.6825 10.8406C67.5142 10.8093 67.339 10.7814 67.1567 10.7582C66.9745 10.735 66.7853 10.7153 66.5891 10.699C66.393 10.6839 66.1899 10.6723 65.9798 10.6642C65.7697 10.6561 65.5526 10.6526 65.3275 10.6526H64.4999H63.6723H62.8447H62.0148V12.6571V14.6617V16.6662V18.6707H62.8424H63.67H64.4976H65.324V18.6742Z" fill="black"/>
<path d="M73.9364 20.9074C73.9364 20.6381 73.9457 20.3758 73.9654 20.1205C73.9852 19.8651 74.0142 19.6179 74.0536 19.3765C74.0931 19.135 74.1419 18.9017 74.201 18.6742C74.2602 18.4467 74.3287 18.2274 74.4065 18.0138C74.4854 17.8002 74.5701 17.5959 74.6618 17.4009C74.7535 17.2059 74.8522 17.0179 74.9578 16.8403C75.0634 16.6616 75.176 16.4921 75.2944 16.3319C75.4128 16.1718 75.5393 16.0186 75.6716 15.8746C75.804 15.7307 75.9421 15.5961 76.0849 15.4695C76.2276 15.343 76.3762 15.2246 76.5294 15.1144C76.6826 15.0041 76.8416 14.9031 77.0065 14.8103C77.1713 14.7174 77.3407 14.6327 77.5148 14.5561C77.6901 14.4806 77.8677 14.4133 78.0464 14.3564C78.2263 14.2996 78.4074 14.252 78.592 14.2137C78.7765 14.1754 78.9622 14.1475 79.1503 14.1278C79.3383 14.1092 79.5298 14.0988 79.7225 14.0988C79.9152 14.0988 80.1067 14.108 80.2947 14.1278C80.4839 14.1463 80.6708 14.1754 80.8553 14.2137C81.0399 14.252 81.2233 14.2996 81.4043 14.3564C81.5854 14.4133 81.7642 14.4795 81.9406 14.5561C82.1182 14.6327 82.29 14.7174 82.4559 14.8103C82.6219 14.9031 82.7821 15.0053 82.9376 15.1144C83.092 15.2246 83.2417 15.343 83.3857 15.4695C83.5296 15.5961 83.6677 15.7319 83.8 15.8746C83.9323 16.0186 84.0577 16.1706 84.1761 16.3319C84.2945 16.4933 84.4071 16.6627 84.5127 16.8403C84.6183 17.0191 84.717 17.2059 84.8087 17.4009C84.9004 17.5971 84.9863 17.8014 85.064 18.0138C85.143 18.2274 85.2114 18.4467 85.2706 18.6742C85.3298 18.9017 85.3786 19.135 85.418 19.3765C85.4575 19.6179 85.4865 19.8651 85.5062 20.1205C85.526 20.3758 85.5353 20.6381 85.5353 20.9074C85.5353 21.1767 85.526 21.4379 85.5062 21.692C85.4865 21.9462 85.4575 22.1923 85.418 22.4314C85.3786 22.6705 85.3298 22.9015 85.2706 23.1243C85.2114 23.3484 85.143 23.5643 85.064 23.772C84.9851 23.9809 84.9004 24.1817 84.8087 24.3744C84.717 24.5671 84.6183 24.7516 84.5127 24.9269C84.4071 25.1033 84.2956 25.2705 84.1761 25.4307C84.0577 25.5908 83.9323 25.7417 83.8 25.8857C83.6677 26.0296 83.5296 26.1642 83.3857 26.2907C83.2417 26.4172 83.0932 26.5356 82.9376 26.6459C82.7833 26.7562 82.6219 26.8572 82.4559 26.95C82.29 27.0429 82.1182 27.1276 81.9406 27.203C81.7642 27.2796 81.5843 27.347 81.4043 27.4038C81.2244 27.4607 81.041 27.5083 80.8553 27.5466C80.6708 27.5849 80.4839 27.6128 80.2947 27.6325C80.1055 27.6522 79.9152 27.6615 79.7225 27.6615C79.5298 27.6615 79.3395 27.6522 79.1503 27.6325C78.9622 27.6139 78.7754 27.5849 78.592 27.5466C78.4086 27.5083 78.2263 27.4607 78.0464 27.4038C77.8665 27.347 77.6901 27.2796 77.5148 27.203C77.3396 27.1276 77.1701 27.0429 77.0065 26.95C76.8416 26.8572 76.6838 26.7562 76.5294 26.6459C76.3762 26.5356 76.2276 26.4184 76.0849 26.2907C75.9421 26.1642 75.804 26.0284 75.6716 25.8857C75.5393 25.7417 75.414 25.5908 75.2944 25.4307C75.176 25.2705 75.0634 25.1033 74.9578 24.9269C74.8522 24.7505 74.7535 24.5671 74.6618 24.3744C74.5701 24.1817 74.4843 23.9809 74.4065 23.772C74.3276 23.5631 74.2591 23.3472 74.201 23.1243C74.1419 22.9003 74.0931 22.6694 74.0536 22.4314C74.0142 22.1935 73.9852 21.9462 73.9654 21.692C73.9468 21.4379 73.9364 21.1767 73.9364 20.9074ZM75.1749 20.9074C75.1749 21.1187 75.1818 21.3241 75.1969 21.5261C75.212 21.728 75.2329 21.9253 75.2619 22.118C75.2909 22.3107 75.3269 22.4987 75.371 22.6833C75.4151 22.8667 75.465 23.0466 75.5242 23.2218C75.5823 23.396 75.6461 23.5654 75.7146 23.7279C75.7831 23.8904 75.8574 24.0471 75.9375 24.1968C76.0175 24.3466 76.1023 24.4917 76.1928 24.6286C76.2833 24.7656 76.3785 24.8979 76.4795 25.0233C76.5805 25.1486 76.6861 25.2682 76.7964 25.3796C76.9066 25.491 77.0215 25.5955 77.1423 25.693C77.2618 25.7905 77.3872 25.881 77.516 25.9646C77.646 26.0481 77.7795 26.1248 77.9188 26.1944C78.058 26.264 78.1997 26.3244 78.3447 26.3766C78.4898 26.4289 78.6372 26.4718 78.787 26.5066C78.9379 26.5414 79.0911 26.567 79.2466 26.5844C79.4021 26.6018 79.5611 26.6099 79.7225 26.6099C79.8838 26.6099 80.0428 26.6018 80.1995 26.5844C80.3562 26.567 80.5094 26.5414 80.6603 26.5066C80.8112 26.4718 80.9598 26.4289 81.106 26.3766C81.2523 26.3244 81.3962 26.264 81.5367 26.1944C81.6783 26.1248 81.8141 26.0481 81.9452 25.9646C82.0764 25.881 82.2029 25.7905 82.3236 25.693C82.4443 25.5955 82.5616 25.491 82.6718 25.3796C82.7832 25.2682 82.8889 25.1486 82.991 25.0233C83.092 24.8979 83.1872 24.7667 83.2777 24.6286C83.3682 24.4905 83.453 24.3466 83.5319 24.1968C83.6108 24.0471 83.6851 23.8904 83.7548 23.7279C83.8232 23.5654 83.8871 23.3971 83.9451 23.2218C84.0043 23.0466 84.0554 22.8678 84.0995 22.6833C84.1436 22.4999 84.1796 22.3107 84.2086 22.118C84.2376 21.9253 84.2597 21.728 84.2748 21.5261C84.2898 21.3241 84.2968 21.1175 84.2968 20.9074C84.2968 20.6915 84.2898 20.4814 84.2748 20.276C84.2597 20.0706 84.2388 19.8709 84.2086 19.6748C84.1796 19.4798 84.1424 19.2894 84.0995 19.1037C84.0554 18.9191 84.0043 18.7381 83.9451 18.564C83.8871 18.3899 83.8232 18.2204 83.7548 18.0579C83.6863 17.8954 83.612 17.7375 83.5319 17.5867C83.453 17.4358 83.3682 17.2895 83.2777 17.1502C83.1872 17.0109 83.092 16.8775 82.991 16.7498C82.89 16.6221 82.7832 16.5014 82.6718 16.3877C82.5604 16.2739 82.4443 16.1683 82.3236 16.0696C82.2029 15.971 82.0764 15.8793 81.9452 15.7957C81.8141 15.7121 81.6783 15.6355 81.5367 15.5659C81.3951 15.4962 81.2511 15.4359 81.106 15.3836C80.9598 15.3314 80.8112 15.2885 80.6603 15.2536C80.5094 15.2188 80.3551 15.1933 80.1995 15.1759C80.0428 15.1585 79.8838 15.1503 79.7225 15.1503C79.5611 15.1503 79.4021 15.1585 79.2466 15.1759C79.0911 15.1933 78.9379 15.2188 78.787 15.2536C78.6361 15.2885 78.4887 15.3314 78.3447 15.3836C78.1997 15.4359 78.058 15.4962 77.9188 15.5659C77.7795 15.6355 77.646 15.7121 77.516 15.7957C77.386 15.8793 77.2618 15.971 77.1423 16.0696C77.0227 16.1683 76.9066 16.2739 76.7964 16.3877C76.6861 16.5014 76.5805 16.6221 76.4795 16.7498C76.3785 16.8775 76.2833 17.0109 76.1928 17.1502C76.1023 17.2895 76.0175 17.4358 75.9375 17.5867C75.8574 17.7375 75.7831 17.8954 75.7146 18.0579C75.6461 18.2204 75.5823 18.3899 75.5242 18.564C75.4662 18.7392 75.4151 18.9191 75.371 19.1037C75.3269 19.2882 75.2909 19.4786 75.2619 19.6748C75.2329 19.8697 75.2109 20.0706 75.1969 20.276C75.183 20.4826 75.1749 20.6927 75.1749 20.9074Z" fill="black"/>
<path d="M87.5803 14.4227H87.903H88.2257H88.5483H88.871L89.449 16.5143L90.0271 18.6059L90.6051 20.6975L91.1831 22.789C91.2238 22.9376 91.2632 23.085 91.3027 23.2313C91.3421 23.3775 91.3804 23.5238 91.4188 23.6677C91.4571 23.8128 91.4942 23.9555 91.5313 24.0995C91.5685 24.2422 91.6045 24.385 91.6416 24.5254C91.6776 24.6671 91.7136 24.8087 91.7484 24.9503C91.7844 25.0919 91.8204 25.2335 91.8563 25.3762C91.8923 25.519 91.9283 25.6606 91.9643 25.8045C92.0003 25.9473 92.0362 26.0912 92.0711 26.234H92.0978H92.1245H92.1511H92.1778C92.2138 26.0901 92.2498 25.9473 92.287 25.8045C92.3241 25.6618 92.3612 25.519 92.3995 25.3762C92.4378 25.2335 92.4761 25.0919 92.5156 24.9503C92.5551 24.8087 92.5945 24.6671 92.6352 24.5254C92.6758 24.3838 92.7164 24.2422 92.7559 24.0995C92.7965 23.9567 92.8371 23.8128 92.8766 23.6677C92.9172 23.5226 92.9578 23.3775 92.9973 23.2313C93.0379 23.085 93.0785 22.9376 93.118 22.789L93.7042 20.6975L94.2903 18.6059L94.8765 16.5143L95.4626 14.4227H95.819H96.1753H96.5316H96.888L97.4741 16.5143L98.0603 18.6059L98.6464 20.6975L99.2326 22.789C99.2732 22.9376 99.3138 23.085 99.3533 23.2313C99.3939 23.3775 99.4345 23.5238 99.474 23.6677C99.5146 23.8128 99.5552 23.9555 99.5947 24.0995C99.6353 24.2422 99.676 24.385 99.7154 24.5254C99.7561 24.6671 99.7967 24.8087 99.8361 24.9503C99.8768 25.0919 99.9174 25.2335 99.9569 25.3762C99.9975 25.519 100.038 25.6606 100.078 25.8045C100.118 25.9473 100.159 26.0912 100.198 26.234H100.225H100.252H100.278H100.305C100.341 26.0901 100.377 25.9473 100.414 25.8045C100.451 25.6618 100.488 25.519 100.527 25.3762C100.565 25.2335 100.603 25.0919 100.643 24.9503C100.682 24.8087 100.722 24.6671 100.762 24.5254C100.803 24.3838 100.842 24.2422 100.882 24.0995C100.921 23.9567 100.96 23.8128 100.998 23.6677C101.036 23.5226 101.073 23.3775 101.111 23.2313C101.148 23.085 101.184 22.9376 101.22 22.789L101.792 20.6975L102.364 18.6059L102.936 16.5143L103.509 14.4227H103.812H104.114H104.417H104.72L103.792 17.6518L102.863 20.8809L101.935 24.1099L101.006 27.339H100.616H100.226H99.8361H99.4473L98.882 25.3345L98.3168 23.3299L97.7515 21.3254L97.1863 19.3209C97.1375 19.1642 97.0899 19.0075 97.0447 18.852C96.9994 18.6964 96.9553 18.542 96.9147 18.3888C96.8729 18.2356 96.8334 18.0824 96.7963 17.9304C96.7591 17.7783 96.7231 17.6274 96.6895 17.4777C96.6558 17.328 96.6198 17.1759 96.5827 17.0239C96.5456 16.8718 96.5061 16.7186 96.4643 16.5654C96.4225 16.4122 96.3796 16.2566 96.3343 16.1023C96.289 15.9479 96.2415 15.7912 96.1927 15.6345H96.166H96.1393H96.1126H96.0859C96.0499 15.7912 96.014 15.9479 95.9757 16.1034C95.9385 16.2601 95.9002 16.4156 95.8607 16.5712C95.8213 16.7267 95.7818 16.8822 95.74 17.0378C95.6994 17.1933 95.6576 17.3477 95.6147 17.5032C95.5717 17.6576 95.5288 17.8131 95.4847 17.9687C95.4406 18.1242 95.3953 18.2797 95.35 18.4353C95.3036 18.5908 95.2572 18.7475 95.2096 18.9042C95.162 19.0609 95.1133 19.2176 95.0633 19.3743L94.505 21.3649L93.9468 23.3555L93.3885 25.3461L92.8302 27.3367H92.4738H92.1175H91.7612H91.4048L90.4496 24.1076L89.4943 20.8785L88.5391 17.6495L87.5803 14.4227Z" fill="black"/>
<path d="M106.767 20.9074C106.767 20.6428 106.776 20.3851 106.796 20.1332C106.815 19.8825 106.844 19.6376 106.884 19.3997C106.923 19.1617 106.972 18.9307 107.031 18.7067C107.091 18.4827 107.159 18.2645 107.237 18.0544C107.316 17.8432 107.4 17.6412 107.492 17.4462C107.584 17.2512 107.683 17.0655 107.788 16.8868C107.894 16.708 108.006 16.5385 108.125 16.376C108.243 16.2135 108.37 16.0603 108.502 15.9141C108.634 15.769 108.771 15.632 108.913 15.5032C109.054 15.3744 109.2 15.2536 109.35 15.1422C109.5 15.0296 109.656 14.9263 109.815 14.8312C109.974 14.736 110.137 14.6489 110.307 14.5712C110.475 14.4922 110.645 14.4237 110.815 14.3646C110.986 14.3054 111.159 14.2566 111.332 14.2171C111.506 14.1777 111.681 14.1487 111.858 14.1289C112.034 14.1092 112.213 14.0999 112.393 14.0999C112.778 14.0999 113.144 14.1324 113.487 14.1974C113.832 14.2624 114.155 14.3599 114.458 14.4899C114.76 14.6199 115.043 14.7824 115.304 14.9774C115.565 15.1724 115.805 15.3999 116.024 15.6599C116.244 15.9199 116.437 16.2077 116.601 16.5211C116.766 16.8345 116.904 17.1758 117.013 17.5437C117.124 17.9116 117.206 18.3063 117.261 18.7276C117.315 19.149 117.343 19.597 117.343 20.0729C117.343 20.1135 117.343 20.1541 117.343 20.1936C117.343 20.2342 117.343 20.2748 117.343 20.3143C117.343 20.3549 117.343 20.3955 117.343 20.435C117.343 20.4756 117.343 20.5163 117.343 20.5557C117.343 20.5963 117.342 20.637 117.34 20.6764C117.337 20.7171 117.334 20.7577 117.329 20.7971C117.324 20.8378 117.319 20.8784 117.312 20.9179C117.305 20.9585 117.297 20.9991 117.288 21.0386H114.961H112.634H110.307H107.978C107.983 21.2405 107.994 21.439 108.011 21.6328C108.028 21.8278 108.054 22.0182 108.084 22.2062C108.115 22.3931 108.154 22.5777 108.198 22.7576C108.243 22.9375 108.294 23.1139 108.352 23.2857C108.41 23.4586 108.474 23.6246 108.545 23.7859C108.616 23.9473 108.691 24.1005 108.774 24.2491C108.856 24.3976 108.943 24.5392 109.037 24.675C109.131 24.8108 109.231 24.9408 109.337 25.0639C109.442 25.1869 109.552 25.3041 109.668 25.4132C109.785 25.5223 109.905 25.6257 110.033 25.722C110.159 25.8183 110.292 25.9077 110.429 25.9913C110.566 26.0737 110.71 26.1503 110.857 26.2199C111.004 26.2896 111.158 26.3499 111.314 26.4022C111.471 26.4544 111.632 26.4973 111.798 26.5322C111.964 26.567 112.135 26.5925 112.309 26.6099C112.483 26.6273 112.663 26.6355 112.848 26.6355C113.023 26.6355 113.194 26.6285 113.359 26.6157C113.525 26.603 113.688 26.5832 113.847 26.5577C114.005 26.5322 114.159 26.4997 114.309 26.4614C114.459 26.4231 114.604 26.3778 114.745 26.3256C114.887 26.2745 115.025 26.2188 115.162 26.1573C115.298 26.0957 115.433 26.0307 115.564 25.9599C115.695 25.8891 115.824 25.8137 115.95 25.7336C116.077 25.6535 116.2 25.5688 116.322 25.4794L116.442 25.7081L116.563 25.9367L116.684 26.1654L116.804 26.394C116.674 26.4706 116.541 26.5461 116.404 26.6204C116.267 26.6947 116.128 26.7678 115.986 26.8397C115.845 26.9117 115.698 26.9825 115.55 27.0521C115.401 27.1218 115.249 27.1903 115.095 27.2564C114.94 27.3238 114.776 27.3818 114.6 27.4329C114.425 27.4828 114.239 27.5257 114.043 27.5594C113.847 27.593 113.64 27.6186 113.423 27.6348C113.206 27.6522 112.979 27.6604 112.741 27.6604C112.534 27.6604 112.331 27.6511 112.13 27.6313C111.93 27.6116 111.733 27.5838 111.54 27.5454C111.346 27.5071 111.155 27.4596 110.967 27.4027C110.779 27.3458 110.595 27.2785 110.414 27.2019C110.233 27.1264 110.056 27.0405 109.887 26.9477C109.717 26.8548 109.552 26.7515 109.395 26.6413C109.237 26.5298 109.085 26.4103 108.937 26.2826C108.791 26.1538 108.651 26.018 108.516 25.8717C108.381 25.7255 108.255 25.5723 108.134 25.4109C108.013 25.2496 107.9 25.0801 107.793 24.9025C107.686 24.7249 107.586 24.5404 107.493 24.3477C107.4 24.155 107.316 23.9542 107.237 23.7453C107.158 23.5364 107.089 23.3217 107.031 23.0988C106.973 22.876 106.923 22.6473 106.884 22.4105C106.844 22.1737 106.815 21.93 106.796 21.6804C106.776 21.4297 106.767 21.1721 106.767 20.9074ZM116.211 20.1274C116.211 19.7107 116.19 19.3196 116.147 18.954C116.105 18.5883 116.041 18.2494 115.956 17.9372C115.871 17.625 115.764 17.3371 115.637 17.0771C115.509 16.8171 115.361 16.5815 115.19 16.3737C115.019 16.1648 114.834 15.9826 114.633 15.827C114.432 15.6703 114.216 15.5403 113.985 15.4359C113.754 15.3314 113.508 15.2536 113.247 15.2003C112.986 15.148 112.71 15.1213 112.418 15.1213C112.279 15.1213 112.142 15.1283 112.006 15.1434C111.87 15.1585 111.737 15.1805 111.605 15.2095C111.472 15.2386 111.341 15.2757 111.212 15.3198C111.083 15.3639 110.956 15.415 110.83 15.473C110.705 15.5311 110.583 15.5961 110.464 15.6657C110.344 15.7353 110.228 15.8131 110.114 15.8955C110 15.9779 109.89 16.0673 109.783 16.1625C109.677 16.2577 109.572 16.3586 109.471 16.4666C109.37 16.5745 109.274 16.6883 109.182 16.8078C109.09 16.9274 109.002 17.0527 108.92 17.1839C108.837 17.315 108.758 17.452 108.684 17.5948C108.61 17.7375 108.541 17.8861 108.476 18.0416C108.411 18.196 108.352 18.3562 108.299 18.5199C108.245 18.6835 108.198 18.853 108.157 19.0271C108.115 19.2012 108.081 19.3788 108.05 19.5622C108.021 19.7456 107.997 19.9336 107.98 20.1263H110.038H112.095H114.153H116.211V20.1274Z" fill="black"/>
<path d="M120.84 14.4226H121.096H121.351H121.606H121.862L121.888 15.0215L121.915 15.6204L121.942 16.2194L121.968 16.8183H121.988H122.008H122.028H122.047C122.155 16.6163 122.268 16.4236 122.387 16.2414C122.507 16.0592 122.632 15.8851 122.763 15.7214C122.895 15.5578 123.032 15.4034 123.176 15.2583C123.319 15.1132 123.468 14.9786 123.622 14.852C123.777 14.7267 123.936 14.6176 124.101 14.5236C124.264 14.4296 124.434 14.3506 124.608 14.2879C124.782 14.2253 124.961 14.1777 125.144 14.1463C125.327 14.115 125.516 14.0988 125.708 14.0988C125.771 14.0988 125.831 14.0999 125.89 14.1022C125.95 14.1046 126.008 14.108 126.063 14.1115C126.119 14.1162 126.174 14.1208 126.227 14.1278C126.279 14.1347 126.33 14.1417 126.38 14.151C126.429 14.1603 126.479 14.1719 126.53 14.1858C126.58 14.1997 126.631 14.2148 126.683 14.2334C126.734 14.2508 126.786 14.2717 126.84 14.2938C126.892 14.3158 126.945 14.3402 127 14.3669L126.933 14.6362L126.865 14.9054L126.798 15.1747L126.731 15.444C126.677 15.422 126.625 15.4022 126.575 15.3836C126.525 15.3651 126.477 15.3488 126.429 15.3349C126.381 15.3198 126.336 15.3082 126.292 15.2966C126.248 15.2862 126.206 15.2769 126.165 15.2699C126.125 15.2629 126.082 15.2571 126.035 15.2525C125.989 15.2478 125.94 15.2432 125.889 15.2397C125.838 15.2362 125.784 15.2339 125.727 15.2328C125.67 15.2316 125.61 15.2304 125.548 15.2304C125.404 15.2304 125.259 15.2455 125.112 15.2769C124.964 15.3082 124.814 15.3535 124.664 15.415C124.513 15.4765 124.358 15.5531 124.204 15.646C124.05 15.7388 123.892 15.8468 123.733 15.9698C123.574 16.0928 123.418 16.2391 123.267 16.4085C123.116 16.5768 122.97 16.7684 122.827 16.9831C122.685 17.1967 122.546 17.4334 122.413 17.6934C122.279 17.9534 122.149 18.2355 122.024 18.5407V20.7403V22.9398V25.1393V27.3388H121.728H121.432H121.136H120.84V24.1098V20.8807V17.6517V14.4226V14.4226Z" fill="black"/>
</svg>
